<?xml version="1.0" encoding="UTF-8" standalone="no"?>
<!DOCTYPE svg PUBLIC "-//W3C//DTD SVG 1.1//EN"
 "http://www.w3.org/Graphics/SVG/1.1/DTD/svg11.dtd">
<!-- Generated by graphviz version 11.0.0 (20240428.1522)
 -->
<!-- Title: G Pages: 1 -->
<svg width="352pt" height="372pt"
 viewBox="0.00 0.00 352.38 371.72" xmlns="http://www.w3.org/2000/svg" xmlns:xlink="http://www.w3.org/1999/xlink">
<g id="graph0" class="graph" transform="scale(1 1) rotate(0) translate(4 367.72)">
<title>G</title>
<polygon fill="white" stroke="none" points="-4,4 -4,-367.72 348.38,-367.72 348.38,4 -4,4"/>
<!-- 0x87520 -->
<g id="node1" class="node">
<title>0x87520</title>
<ellipse fill="none" stroke="black" cx="122.38" cy="-345.72" rx="50.07" ry="18"/>
<text text-anchor="middle" x="122.38" y="-340.3" font-family="Times New Roman,serif" font-size="14.00">enum&#45;expr</text>
</g>
<!-- 0x86910 -->
<g id="node2" class="node">
<title>0x86910</title>
<ellipse fill="none" stroke="red" cx="62.38" cy="-273.72" rx="30.61" ry="18"/>
<text text-anchor="middle" x="62.38" y="-268.3" font-family="Times New Roman,serif" font-size="14.00" fill="red">enum</text>
</g>
<!-- 0x87520&#45;&gt;0x86910 -->
<g id="edge1" class="edge">
<title>0x87520&#45;&gt;0x86910</title>
<path fill="none" stroke="black" d="M108.16,-328.13C100.62,-319.34 91.23,-308.39 82.92,-298.69"/>
<polygon fill="black" stroke="black" points="85.82,-296.7 76.66,-291.38 80.51,-301.25 85.82,-296.7"/>
</g>
<!-- 0x90230 -->
<g id="node3" class="node">
<title>0x90230</title>
<ellipse fill="none" stroke="black" cx="183.38" cy="-273.72" rx="72.52" ry="18"/>
<text text-anchor="middle" x="183.38" y="-268.3" font-family="Times New Roman,serif" font-size="14.00">enum&#45;expr&#45;body</text>
</g>
<!-- 0x87520&#45;&gt;0x90230 -->
<g id="edge2" class="edge">
<title>0x87520&#45;&gt;0x90230</title>
<path fill="none" stroke="black" d="M136.83,-328.13C144.09,-319.8 153.05,-309.52 161.16,-300.21"/>
<polygon fill="black" stroke="black" points="163.67,-302.66 167.61,-292.82 158.4,-298.06 163.67,-302.66"/>
</g>
<!-- 0xb1b80 -->
<g id="node4" class="node">
<title>0xb1b80</title>
<ellipse fill="none" stroke="red" cx="47.38" cy="-191.79" rx="47.38" ry="27.93"/>
<text text-anchor="middle" x="47.38" y="-194.24" font-family="Times New Roman,serif" font-size="14.00" fill="red">identifier:</text>
<text text-anchor="middle" x="47.38" y="-178.49" font-family="Times New Roman,serif" font-size="14.00" fill="red">colors</text>
</g>
<!-- 0x90230&#45;&gt;0xb1b80 -->
<g id="edge3" class="edge">
<title>0x90230&#45;&gt;0xb1b80</title>
<path fill="none" stroke="black" d="M156.18,-256.74C137.31,-245.65 111.79,-230.65 90.2,-217.96"/>
<polygon fill="black" stroke="black" points="91.99,-214.95 81.59,-212.9 88.44,-220.99 91.99,-214.95"/>
</g>
<!-- 0xb2d70 -->
<g id="node5" class="node">
<title>0xb2d70</title>
<ellipse fill="none" stroke="red" cx="139.38" cy="-191.79" rx="27" ry="18"/>
<text text-anchor="middle" x="139.38" y="-186.37" font-family="Times New Roman,serif" font-size="14.00" fill="red">{</text>
</g>
<!-- 0x90230&#45;&gt;0xb2d70 -->
<g id="edge4" class="edge">
<title>0x90230&#45;&gt;0xb2d70</title>
<path fill="none" stroke="black" d="M174.04,-255.77C168.19,-245.14 160.52,-231.21 153.89,-219.15"/>
<polygon fill="black" stroke="black" points="157.01,-217.57 149.12,-210.5 150.88,-220.95 157.01,-217.57"/>
</g>
<!-- 0xae680 -->
<g id="node6" class="node">
<title>0xae680</title>
<ellipse fill="none" stroke="black" cx="228.38" cy="-191.79" rx="44.08" ry="18"/>
<text text-anchor="middle" x="228.38" y="-186.37" font-family="Times New Roman,serif" font-size="14.00">enum&#45;list</text>
</g>
<!-- 0x90230&#45;&gt;0xae680 -->
<g id="edge5" class="edge">
<title>0x90230&#45;&gt;0xae680</title>
<path fill="none" stroke="black" d="M192.92,-255.77C198.83,-245.28 206.54,-231.58 213.26,-219.64"/>
<polygon fill="black" stroke="black" points="216.25,-221.47 218.1,-211.04 210.15,-218.03 216.25,-221.47"/>
</g>
<!-- 0xb5c50 -->
<g id="node9" class="node">
<title>0xb5c50</title>
<ellipse fill="none" stroke="red" cx="317.38" cy="-191.79" rx="27" ry="18"/>
<text text-anchor="middle" x="317.38" y="-186.37" font-family="Times New Roman,serif" font-size="14.00" fill="red">}</text>
</g>
<!-- 0x90230&#45;&gt;0xb5c50 -->
<g id="edge8" class="edge">
<title>0x90230&#45;&gt;0xb5c50</title>
<path fill="none" stroke="black" d="M214.94,-257.15C234.48,-247.14 259.87,-233.48 281.38,-219.72 284.7,-217.6 288.11,-215.26 291.45,-212.88"/>
<polygon fill="black" stroke="black" points="293.33,-215.84 299.31,-207.09 289.18,-210.21 293.33,-215.84"/>
</g>
<!-- 0xae9d0 -->
<g id="node7" class="node">
<title>0xae9d0</title>
<ellipse fill="none" stroke="black" cx="228.38" cy="-109.86" rx="52.06" ry="18"/>
<text text-anchor="middle" x="228.38" y="-104.44" font-family="Times New Roman,serif" font-size="14.00">enumerator</text>
</g>
<!-- 0xae680&#45;&gt;0xae9d0 -->
<g id="edge6" class="edge">
<title>0xae680&#45;&gt;0xae9d0</title>
<path fill="none" stroke="black" d="M228.38,-173.45C228.38,-163.5 228.38,-150.76 228.38,-139.37"/>
<polygon fill="black" stroke="black" points="231.88,-139.68 228.38,-129.68 224.88,-139.68 231.88,-139.68"/>
</g>
<!-- 0xaed20 -->
<g id="node8" class="node">
<title>0xaed20</title>
<ellipse fill="none" stroke="red" cx="228.38" cy="-27.93" rx="97.76" ry="27.93"/>
<text text-anchor="middle" x="228.38" y="-30.38" font-family="Times New Roman,serif" font-size="14.00" fill="red">enumeration&#45;constant:</text>
<text text-anchor="middle" x="228.38" y="-14.63" font-family="Times New Roman,serif" font-size="14.00" fill="red">Red</text>
</g>
<!-- 0xae9d0&#45;&gt;0xaed20 -->
<g id="edge7" class="edge">
<title>0xae9d0&#45;&gt;0xaed20</title>
<path fill="none" stroke="black" d="M228.38,-91.52C228.38,-84.45 228.38,-75.97 228.38,-67.57"/>
<polygon fill="black" stroke="black" points="231.88,-67.81 228.38,-57.81 224.88,-67.81 231.88,-67.81"/>
</g>
</g>
</svg>
